<svg width="27" height="26" viewBox="0 0 27 26" fill="none" xmlns="http://www.w3.org/2000/svg">
<path fill-rule="evenodd" clip-rule="evenodd" d="M17.5625 19.5C17.1138 19.5 16.75 19.8638 16.75 20.3125C16.75 20.7612 17.1138 21.125 17.5625 21.125C18.0112 21.125 18.375 20.7612 18.375 20.3125C18.375 19.8638 18.0112 19.5 17.5625 19.5ZM15.125 20.3125C15.125 18.9663 16.2163 17.875 17.5625 17.875C18.9087 17.875 20 18.9663 20 20.3125C20 21.6587 18.9087 22.75 17.5625 22.75C16.2163 22.75 15.125 21.6587 15.125 20.3125Z" fill="white"/>
<path fill-rule="evenodd" clip-rule="evenodd" d="M9.4375 19.5C8.98876 19.5 8.625 19.8638 8.625 20.3125C8.625 20.7612 8.98876 21.125 9.4375 21.125C9.88624 21.125 10.25 20.7612 10.25 20.3125C10.25 19.8638 9.88624 19.5 9.4375 19.5ZM7 20.3125C7 18.9663 8.09131 17.875 9.4375 17.875C10.7837 17.875 11.875 18.9663 11.875 20.3125C11.875 21.6587 10.7837 22.75 9.4375 22.75C8.09131 22.75 7 21.6587 7 20.3125Z" fill="white"/>
<path fill-rule="evenodd" clip-rule="evenodd" d="M4.5625 3.25C4.11377 3.25 3.75 3.61377 3.75 4.0625C3.75 4.51123 4.11377 4.875 4.5625 4.875H6.29943C6.7257 4.875 7.0795 5.20443 7.10987 5.62961L7.70676 13.9861C7.79788 15.2618 8.85924 16.25 10.138 16.25H18.7909C19.8674 16.25 20.8163 15.5439 21.1256 14.5129L23.2104 7.56405C23.2909 7.31635 23.2415 7.03214 23.0894 6.82746C22.9407 6.62725 22.681 6.49395 22.4186 6.5H20C19.5513 6.5 19.1875 6.86377 19.1875 7.3125C19.1875 7.76123 19.5513 8.125 20 8.125H21.3455L19.5692 14.0459C19.4661 14.3896 19.1497 14.625 18.7909 14.625H10.138C9.7118 14.625 9.35804 14.2956 9.32765 13.8703L8.73071 5.51384C8.63963 4.23828 7.57824 3.25 6.29943 3.25H4.5625Z" fill="white"/>
<path fill-rule="evenodd" clip-rule="evenodd" d="M15.125 4.875C15.125 4.42627 14.7612 4.0625 14.3125 4.0625C13.8638 4.0625 13.5 4.42627 13.5 4.875V6.5H11.875C11.4263 6.5 11.0625 6.86376 11.0625 7.3125C11.0625 7.76123 11.4263 8.125 11.875 8.125H13.5V9.75C13.5 10.1987 13.8638 10.5625 14.3125 10.5625C14.7612 10.5625 15.125 10.1987 15.125 9.75V8.125H16.75C17.1987 8.125 17.5625 7.76124 17.5625 7.3125C17.5625 6.86377 17.1987 6.5 16.75 6.5H15.125V4.875Z" fill="white"/>
</svg>
