<svg width="35" height="34" viewBox="0 0 35 34" fill="none" xmlns="http://www.w3.org/2000/svg">
<path fill-rule="evenodd" clip-rule="evenodd" d="M32.4662 22.0134L34.7819 10.1576H8.32509L7.7144 7.02898C7.42709 5.55809 6.75986 4.26928 5.79907 3.25755C4.83983 2.24424 3.59171 1.51275 2.1458 1.15651L1.14104 0.907934C0.644922 0.787601 0.145673 1.09476 0.0263861 1.59508C-0.0944992 2.09541 0.211641 2.59891 0.706173 2.71921L1.71094 2.96621C2.80365 3.23536 3.74089 3.78318 4.45991 4.54158C5.17739 5.2984 5.67817 6.27054 5.8964 7.38518L6.43649 10.1559L6.70809 11.5461L8.75058 22.0115C9.18388 24.2282 11.0647 25.7877 13.305 25.7877H27.9103C30.1507 25.7877 32.0331 24.2281 32.4647 22.0115L32.4662 22.0134ZM14.0223 28.182C15.374 28.182 16.4698 29.2871 16.4698 30.6503C16.4698 32.0135 15.3739 33.1187 14.0223 33.1187C12.6706 33.1187 11.5747 32.0135 11.5747 30.6503C11.5747 29.2871 12.6706 28.182 14.0223 28.182ZM27.1972 28.182C28.5489 28.182 29.6447 29.2871 29.6447 30.6503C29.6447 32.0135 28.5489 33.1187 27.1972 33.1187C25.8455 33.1187 24.7496 32.0135 24.7496 30.6503C24.7496 29.2871 25.8455 28.182 27.1972 28.182Z" fill="#1C1C1E"/>
</svg>
