<svg width="120" height="121" viewBox="0 0 120 121" fill="none" xmlns="http://www.w3.org/2000/svg">
<rect y="0.5" width="120" height="120" rx="60" fill="#E1F0FE"/>
<path d="M87.3281 53.2812H32.6719C31.248 53.2812 30.0938 54.4355 30.0938 55.8594V87.8281C30.0938 89.252 31.248 90.4062 32.6719 90.4062H87.3281C88.752 90.4062 89.9062 89.252 89.9062 87.8281V55.8594C89.9062 54.4355 88.752 53.2812 87.3281 53.2812Z" fill="#014FB3"/>
<path d="M33.1875 66.6875H41.4375V72.875H33.1875V66.6875Z" fill="white"/>
<path d="M85.7812 61.5312H60V57.4062H83.7188L85.7812 61.5312Z" fill="white"/>
<path d="M33.1875 81.6406C33.0507 81.6406 32.9196 81.5863 32.8229 81.4896C32.7262 81.3929 32.6719 81.2618 32.6719 81.125V79.0625C32.6719 78.9257 32.7262 78.7946 32.8229 78.6979C32.9196 78.6012 33.0507 78.5469 33.1875 78.5469C33.3243 78.5469 33.4554 78.6012 33.5521 78.6979C33.6488 78.7946 33.7031 78.9257 33.7031 79.0625V81.125C33.7031 81.2618 33.6488 81.3929 33.5521 81.4896C33.4554 81.5863 33.3243 81.6406 33.1875 81.6406Z" fill="#FFFEFC"/>
<path d="M35.25 81.6406C35.1132 81.6406 34.9821 81.5863 34.8854 81.4896C34.7887 81.3929 34.7344 81.2618 34.7344 81.125V79.0625C34.7344 78.9257 34.7887 78.7946 34.8854 78.6979C34.9821 78.6012 35.1132 78.5469 35.25 78.5469C35.3868 78.5469 35.5179 78.6012 35.6146 78.6979C35.7113 78.7946 35.7656 78.9257 35.7656 79.0625V81.125C35.7656 81.2618 35.7113 81.3929 35.6146 81.4896C35.5179 81.5863 35.3868 81.6406 35.25 81.6406Z" fill="#FFFEFC"/>
<path d="M37.3125 81.6406C37.1757 81.6406 37.0446 81.5863 36.9479 81.4896C36.8512 81.3929 36.7969 81.2618 36.7969 81.125V79.0625C36.7969 78.9257 36.8512 78.7946 36.9479 78.6979C37.0446 78.6012 37.1757 78.5469 37.3125 78.5469C37.4493 78.5469 37.5804 78.6012 37.6771 78.6979C37.7738 78.7946 37.8281 78.9257 37.8281 79.0625V81.125C37.8281 81.2618 37.7738 81.3929 37.6771 81.4896C37.5804 81.5863 37.4493 81.6406 37.3125 81.6406Z" fill="#FFFEFC"/>
<path d="M39.375 81.6406C39.2382 81.6406 39.1071 81.5863 39.0104 81.4896C38.9137 81.3929 38.8594 81.2618 38.8594 81.125V79.0625C38.8594 78.9257 38.9137 78.7946 39.0104 78.6979C39.1071 78.6012 39.2382 78.5469 39.375 78.5469C39.5118 78.5469 39.6429 78.6012 39.7396 78.6979C39.8363 78.7946 39.8906 78.9257 39.8906 79.0625V81.125C39.8906 81.2618 39.8363 81.3929 39.7396 81.4896C39.6429 81.5863 39.5118 81.6406 39.375 81.6406Z" fill="#FFFEFC"/>
<path d="M45.5625 81.6406C45.4257 81.6406 45.2946 81.5863 45.1979 81.4896C45.1012 81.3929 45.0469 81.2618 45.0469 81.125V79.0625C45.0469 78.9257 45.1012 78.7946 45.1979 78.6979C45.2946 78.6012 45.4257 78.5469 45.5625 78.5469C45.6993 78.5469 45.8304 78.6012 45.9271 78.6979C46.0238 78.7946 46.0781 78.9257 46.0781 79.0625V81.125C46.0781 81.2618 46.0238 81.3929 45.9271 81.4896C45.8304 81.5863 45.6993 81.6406 45.5625 81.6406Z" fill="#FFFEFC"/>
<path d="M41.4375 81.6406C41.3007 81.6406 41.1696 81.5863 41.0729 81.4896C40.9762 81.3929 40.9219 81.2618 40.9219 81.125V79.0625C40.9219 78.9257 40.9762 78.7946 41.0729 78.6979C41.1696 78.6012 41.3007 78.5469 41.4375 78.5469C41.5743 78.5469 41.7054 78.6012 41.8021 78.6979C41.8988 78.7946 41.9531 78.9257 41.9531 79.0625V81.125C41.9531 81.2618 41.8988 81.3929 41.8021 81.4896C41.7054 81.5863 41.5743 81.6406 41.4375 81.6406Z" fill="#FFFEFC"/>
<path d="M47.625 81.6406C47.4882 81.6406 47.3571 81.5863 47.2604 81.4896C47.1637 81.3929 47.1094 81.2618 47.1094 81.125V79.0625C47.1094 78.9257 47.1637 78.7946 47.2604 78.6979C47.3571 78.6012 47.4882 78.5469 47.625 78.5469C47.7618 78.5469 47.8929 78.6012 47.9896 78.6979C48.0863 78.7946 48.1406 78.9257 48.1406 79.0625V81.125C48.1406 81.2618 48.0863 81.3929 47.9896 81.4896C47.8929 81.5863 47.7618 81.6406 47.625 81.6406Z" fill="#FFFEFC"/>
<path d="M49.6875 81.6406C49.5507 81.6406 49.4196 81.5863 49.3229 81.4896C49.2262 81.3929 49.1719 81.2618 49.1719 81.125V79.0625C49.1719 78.9257 49.2262 78.7946 49.3229 78.6979C49.4196 78.6012 49.5507 78.5469 49.6875 78.5469C49.8243 78.5469 49.9554 78.6012 50.0521 78.6979C50.1488 78.7946 50.2031 78.9257 50.2031 79.0625V81.125C50.2031 81.2618 50.1488 81.3929 50.0521 81.4896C49.9554 81.5863 49.8243 81.6406 49.6875 81.6406Z" fill="#FFFEFC"/>
<path d="M51.75 81.6406C51.6132 81.6406 51.4821 81.5863 51.3854 81.4896C51.2887 81.3929 51.2344 81.2618 51.2344 81.125V79.0625C51.2344 78.9257 51.2887 78.7946 51.3854 78.6979C51.4821 78.6012 51.6132 78.5469 51.75 78.5469C51.8868 78.5469 52.0179 78.6012 52.1146 78.6979C52.2113 78.7946 52.2656 78.9257 52.2656 79.0625V81.125C52.2656 81.2618 52.2113 81.3929 52.1146 81.4896C52.0179 81.5863 51.8868 81.6406 51.75 81.6406Z" fill="#FFFEFC"/>
<path d="M55.875 81.6406C55.7382 81.6406 55.6071 81.5863 55.5104 81.4896C55.4137 81.3929 55.3594 81.2618 55.3594 81.125V79.0625C55.3594 78.9257 55.4137 78.7946 55.5104 78.6979C55.6071 78.6012 55.7382 78.5469 55.875 78.5469C56.0118 78.5469 56.1429 78.6012 56.2396 78.6979C56.3363 78.7946 56.3906 78.9257 56.3906 79.0625V81.125C56.3906 81.2618 56.3363 81.3929 56.2396 81.4896C56.1429 81.5863 56.0118 81.6406 55.875 81.6406Z" fill="#FFFEFC"/>
<path d="M57.9375 81.6406C57.8007 81.6406 57.6696 81.5863 57.5729 81.4896C57.4762 81.3929 57.4219 81.2618 57.4219 81.125V79.0625C57.4219 78.9257 57.4762 78.7946 57.5729 78.6979C57.6696 78.6012 57.8007 78.5469 57.9375 78.5469C58.0743 78.5469 58.2054 78.6012 58.3021 78.6979C58.3988 78.7946 58.4531 78.9257 58.4531 79.0625V81.125C58.4531 81.2618 58.3988 81.3929 58.3021 81.4896C58.2054 81.5863 58.0743 81.6406 57.9375 81.6406Z" fill="#FFFEFC"/>
<path d="M60 81.6406C59.8632 81.6406 59.7321 81.5863 59.6354 81.4896C59.5387 81.3929 59.4844 81.2618 59.4844 81.125V79.0625C59.4844 78.9257 59.5387 78.7946 59.6354 78.6979C59.7321 78.6012 59.8632 78.5469 60 78.5469C60.1368 78.5469 60.2679 78.6012 60.3646 78.6979C60.4613 78.7946 60.5156 78.9257 60.5156 79.0625V81.125C60.5156 81.2618 60.4613 81.3929 60.3646 81.4896C60.2679 81.5863 60.1368 81.6406 60 81.6406Z" fill="#FFFEFC"/>
<path d="M62.0625 81.6406C61.9257 81.6406 61.7946 81.5863 61.6979 81.4896C61.6012 81.3929 61.5469 81.2618 61.5469 81.125V79.0625C61.5469 78.9257 61.6012 78.7946 61.6979 78.6979C61.7946 78.6012 61.9257 78.5469 62.0625 78.5469C62.1993 78.5469 62.3304 78.6012 62.4271 78.6979C62.5238 78.7946 62.5781 78.9257 62.5781 79.0625V81.125C62.5781 81.2618 62.5238 81.3929 62.4271 81.4896C62.3304 81.5863 62.1993 81.6406 62.0625 81.6406Z" fill="#FFFEFC"/>
<path d="M49.6875 85.7656H33.1875C33.0507 85.7656 32.9196 85.7113 32.8229 85.6146C32.7262 85.5179 32.6719 85.3868 32.6719 85.25C32.6719 85.1132 32.7262 84.9821 32.8229 84.8854C32.9196 84.7887 33.0507 84.7344 33.1875 84.7344H49.6875C49.8243 84.7344 49.9554 84.7887 50.0521 84.8854C50.1488 84.9821 50.2031 85.1132 50.2031 85.25C50.2031 85.3868 50.1488 85.5179 50.0521 85.6146C49.9554 85.7113 49.8243 85.7656 49.6875 85.7656Z" fill="#FFFEFC"/>
<path d="M60 85.7656H51.75C51.6132 85.7656 51.4821 85.7113 51.3854 85.6146C51.2887 85.5179 51.2344 85.3868 51.2344 85.25C51.2344 85.1132 51.2887 84.9821 51.3854 84.8854C51.4821 84.7887 51.6132 84.7344 51.75 84.7344H60C60.1368 84.7344 60.2679 84.7887 60.3646 84.8854C60.4613 84.9821 60.5156 85.1132 60.5156 85.25C60.5156 85.3868 60.4613 85.5179 60.3646 85.6146C60.2679 85.7113 60.1368 85.7656 60 85.7656Z" fill="#FFFEFC"/>
<path d="M37.3125 57.4062H35.25C34.1109 57.4062 33.1875 58.3297 33.1875 59.4688C33.1875 60.6078 34.1109 61.5312 35.25 61.5312H37.3125C38.4516 61.5312 39.375 60.6078 39.375 59.4688C39.375 58.3297 38.4516 57.4062 37.3125 57.4062Z" fill="#FFFEFC"/>
<path d="M45.5625 57.9219H41.4375C41.3007 57.9219 41.1696 57.8676 41.0729 57.7709C40.9762 57.6742 40.9219 57.543 40.9219 57.4062C40.9219 57.2695 40.9762 57.1383 41.0729 57.0416C41.1696 56.9449 41.3007 56.8906 41.4375 56.8906H45.5625C45.6993 56.8906 45.8304 56.9449 45.9271 57.0416C46.0238 57.1383 46.0781 57.2695 46.0781 57.4062C46.0781 57.543 46.0238 57.6742 45.9271 57.7709C45.8304 57.8676 45.6993 57.9219 45.5625 57.9219Z" fill="#FFFEFC"/>
<path d="M51.75 59.9844H41.4375C41.3007 59.9844 41.1696 59.9301 41.0729 59.8334C40.9762 59.7367 40.9219 59.6055 40.9219 59.4688C40.9219 59.332 40.9762 59.2008 41.0729 59.1041C41.1696 59.0074 41.3007 58.9531 41.4375 58.9531H51.75C51.8868 58.9531 52.0179 59.0074 52.1146 59.1041C52.2113 59.2008 52.2656 59.332 52.2656 59.4688C52.2656 59.6055 52.2113 59.7367 52.1146 59.8334C52.0179 59.9301 51.8868 59.9844 51.75 59.9844Z" fill="#FFFEFC"/>
<path d="M54.8438 62.0469H41.4375C41.3007 62.0469 41.1696 61.9926 41.0729 61.8959C40.9762 61.7992 40.9219 61.668 40.9219 61.5312C40.9219 61.3945 40.9762 61.2633 41.0729 61.1666C41.1696 61.0699 41.3007 61.0156 41.4375 61.0156H54.8438C54.9805 61.0156 55.1117 61.0699 55.2084 61.1666C55.3051 61.2633 55.3594 61.3945 55.3594 61.5312C55.3594 61.668 55.3051 61.7992 55.2084 61.8959C55.1117 61.9926 54.9805 62.0469 54.8438 62.0469Z" fill="#FFFEFC"/>
<path d="M80.625 86.2812C83.4727 86.2812 85.7812 83.9727 85.7812 81.125C85.7812 78.2773 83.4727 75.9688 80.625 75.9688C77.7773 75.9688 75.4688 78.2773 75.4688 81.125C75.4688 83.9727 77.7773 86.2812 80.625 86.2812Z" fill="#FFFEFC"/>
<path d="M60 71.8441L59.6365 71.666C54.796 69.2968 50.7176 65.6168 47.8649 61.0445C45.0123 56.4723 43.5 51.1912 43.5 45.802V34.8535H44.4668C49.9153 34.8535 55.2694 33.4317 60 30.7285L60.0557 30.7605C64.7497 33.4427 70.0624 34.8535 75.4688 34.8535V46.3177C75.4688 51.5797 74.0269 56.7412 71.2998 61.2415C68.5727 65.7417 64.6646 69.4087 60 71.8441Z" fill="#41B212"/>
<path d="M59.9326 68.3357C55.894 66.1197 52.5252 62.859 50.1786 58.8948C47.832 54.9307 46.5939 50.4087 46.5938 45.8021V37.8812C51.262 37.5898 55.8222 36.3517 59.9968 34.2422C63.8602 36.2027 68.0606 37.4122 72.375 37.8064V46.3177C72.375 50.749 71.2293 55.105 69.0492 58.9629C66.8691 62.8208 63.7286 66.0496 59.9326 68.3357Z" fill="#5CCD2C"/>
<path d="M64.125 45.1655C64.1251 44.4414 63.9346 43.73 63.5726 43.1029C63.2106 42.4758 62.6899 41.955 62.0628 41.5929C61.4358 41.2308 60.7244 41.0401 60.0003 41.04C59.2762 41.04 58.5648 41.2305 57.9377 41.5926C57.3106 41.9546 56.7898 42.4753 56.4277 43.1024C56.0657 43.7295 55.875 44.4408 55.875 45.1649C55.875 45.889 56.0656 46.6004 56.4276 47.2275C56.7897 47.8546 57.3104 48.3753 57.9375 48.7374V58.5718C57.9375 59.1188 58.1548 59.6434 58.5416 60.0302C58.9284 60.417 59.453 60.6343 60 60.6343C60.547 60.6343 61.0716 60.417 61.4584 60.0302C61.8452 59.6434 62.0625 59.1188 62.0625 58.5718V48.7374C62.6897 48.3756 63.2105 47.855 63.5726 47.228C63.9346 46.6009 64.1252 45.8896 64.125 45.1655Z" fill="white"/>
</svg>
