<svg width="120" height="121" viewBox="0 0 120 121" fill="none" xmlns="http://www.w3.org/2000/svg">
<rect y="0.5" width="120" height="120" rx="60" fill="#E1F0FE"/>
<path d="M90 56.75H71.25C70.9185 56.75 70.6005 56.8817 70.3661 57.1161C70.1317 57.3505 70 57.6685 70 58V74.25C70 74.5815 70.1317 74.8995 70.3661 75.1339C70.6005 75.3683 70.9185 75.5 71.25 75.5H92.5C92.8315 75.5 93.1495 75.3683 93.3839 75.1339C93.6183 74.8995 93.75 74.5815 93.75 74.25V60.5C93.7489 59.5058 93.3535 58.5526 92.6504 57.8496C91.9474 57.1465 90.9942 56.7511 90 56.75Z" fill="#1065D0"/>
<path d="M91.1859 57.6045L86.756 44.3141C86.5076 43.5671 86.0302 42.9173 85.3916 42.457C84.7529 41.9967 83.9855 41.7493 83.1983 41.75H71.25C70.9185 41.75 70.6005 41.8817 70.3661 42.1161C70.1317 42.3505 70 42.6685 70 43V58C70 58.3315 70.1317 58.6495 70.3661 58.8839C70.6005 59.1183 70.9185 59.25 71.25 59.25H90C90.1974 59.2481 90.3917 59.1998 90.567 59.109C90.7423 59.0182 90.8938 58.8874 91.0092 58.7273C91.1247 58.5671 91.2008 58.382 91.2315 58.187C91.2622 57.9919 91.2465 57.7924 91.1859 57.6045Z" fill="#1065D0"/>
<path d="M86.1859 53.8545L83.6859 46.3545C83.6029 46.1056 83.4437 45.8892 83.2309 45.7359C83.018 45.5825 82.7623 45.5 82.5 45.5H75C74.6685 45.5 74.3505 45.6317 74.1161 45.8661C73.8817 46.1005 73.75 46.4185 73.75 46.75V54.25C73.75 54.5815 73.8817 54.8995 74.1161 55.1339C74.3505 55.3683 74.6685 55.5 75 55.5H85C85.1974 55.4981 85.3916 55.4498 85.5669 55.359C85.7422 55.2682 85.8937 55.1374 86.0091 54.9772C86.1246 54.817 86.2007 54.632 86.2314 54.4369C86.2621 54.2419 86.2465 54.0424 86.1859 53.8545Z" fill="#EEEEEE"/>
<path d="M89.3761 63.0004C85.3235 62.9438 85.3216 69.3065 89.3761 69.2504H93.7511V63.0004H89.3761Z" fill="white"/>
<path d="M68.75 38H30C29.0058 38.0011 28.0526 38.3965 27.3496 39.0996C26.6465 39.8026 26.2511 40.7558 26.25 41.75V68H72.5V41.75C72.4989 40.7558 72.1035 39.8026 71.4004 39.0996C70.6974 38.3965 69.7442 38.0011 68.75 38Z" fill="#004DAE"/>
<path d="M58.7508 44.2503C47.1223 44.1695 47.0443 61.8939 58.7499 61.7497C70.4556 61.8954 70.3774 44.171 58.7508 44.2503Z" fill="#EEEEEE"/>
<path d="M70 65.5H26.25V74.25C26.25 74.5815 26.3817 74.8995 26.6161 75.1339C26.8505 75.3683 27.1685 75.5 27.5 75.5H71.25C71.5815 75.5 71.8995 75.3683 72.1339 75.1339C72.3683 74.8995 72.5 74.5815 72.5 74.25V65.5H70Z" fill="#1065D0"/>
<path d="M94.3761 73.0004H25.6261C21.5735 72.9438 21.5716 79.3065 25.6261 79.2504H94.3761C98.4287 79.307 98.4306 72.9443 94.3761 73.0004Z" fill="#014FB3"/>
<path d="M83.1254 69.2508C73.9582 69.1258 73.9582 83.1227 83.1254 82.9991C92.2916 83.1238 92.2914 69.1272 83.1254 69.2508Z" fill="white"/>
<path d="M36.8754 69.2508C27.7082 69.1258 27.7082 83.1227 36.8754 82.9991C46.0416 83.1238 46.0414 69.1272 36.8754 69.2508Z" fill="white"/>
<path d="M36.8752 73.0005C32.6992 72.9418 32.7173 79.312 36.8752 79.2495C41.051 79.3086 41.0327 72.938 36.8752 73.0005Z" fill="#004DAE"/>
<path d="M83.1252 73.0005C78.9492 72.9418 78.9673 79.312 83.1252 79.2495C87.301 79.3086 87.2827 72.938 83.1252 73.0005Z" fill="#004DAE"/>
<path d="M60 55.5C59.8358 55.5002 59.6732 55.4679 59.5216 55.4051C59.3699 55.3422 59.2322 55.25 59.1162 55.1338L57.8662 53.8838C57.6318 53.6494 57.5001 53.3315 57.5 53V49.25C57.5 48.9185 57.6317 48.6005 57.8661 48.3661C58.1005 48.1317 58.4185 48 58.75 48C59.0815 48 59.3995 48.1317 59.6339 48.3661C59.8683 48.6005 60 48.9185 60 49.25V52.4824L60.8838 53.3662C61.0546 53.5425 61.1701 53.765 61.2161 54.0061C61.2622 54.2472 61.2366 54.4966 61.1427 54.7234C61.0487 54.9502 60.8905 55.1446 60.6875 55.2826C60.4844 55.4205 60.2455 55.4961 60 55.5Z" fill="#014FB3"/>
<path d="M37.5 61.75H23.75C23.4185 61.75 23.1005 61.6183 22.8661 61.3839C22.6317 61.1495 22.5 60.8315 22.5 60.5C22.5 60.1685 22.6317 59.8505 22.8661 59.6161C23.1005 59.3817 23.4185 59.25 23.75 59.25H37.5C37.8315 59.25 38.1495 59.3817 38.3839 59.6161C38.6183 59.8505 38.75 60.1685 38.75 60.5C38.75 60.8315 38.6183 61.1495 38.3839 61.3839C38.1495 61.6183 37.8315 61.75 37.5 61.75Z" fill="#EEEEEE"/>
<path d="M42.5 56.75H26.25C25.9185 56.75 25.6005 56.6183 25.3661 56.3839C25.1317 56.1495 25 55.8315 25 55.5C25 55.1685 25.1317 54.8505 25.3661 54.6161C25.6005 54.3817 25.9185 54.25 26.25 54.25H42.5C42.8315 54.25 43.1495 54.3817 43.3839 54.6161C43.6183 54.8505 43.75 55.1685 43.75 55.5C43.75 55.8315 43.6183 56.1495 43.3839 56.3839C43.1495 56.6183 42.8315 56.75 42.5 56.75Z" fill="#EEEEEE"/>
<path d="M37.5 46.75H23.75C23.4185 46.75 23.1005 46.6183 22.8661 46.3839C22.6317 46.1495 22.5 45.8315 22.5 45.5C22.5 45.1685 22.6317 44.8505 22.8661 44.6161C23.1005 44.3817 23.4185 44.25 23.75 44.25H37.5C37.8315 44.25 38.1495 44.3817 38.3839 44.6161C38.6183 44.8505 38.75 45.1685 38.75 45.5C38.75 45.8315 38.6183 46.1495 38.3839 46.3839C38.1495 46.6183 37.8315 46.75 37.5 46.75Z" fill="#EEEEEE"/>
<path d="M42.5 51.75H26.25C25.9185 51.75 25.6005 51.6183 25.3661 51.3839C25.1317 51.1495 25 50.8315 25 50.5C25 50.1685 25.1317 49.8505 25.3661 49.6161C25.6005 49.3817 25.9185 49.25 26.25 49.25H42.5C42.8315 49.25 43.1495 49.3817 43.3839 49.6161C43.6183 49.8505 43.75 50.1685 43.75 50.5C43.75 50.8315 43.6183 51.1495 43.3839 51.3839C43.1495 51.6183 42.8315 51.75 42.5 51.75Z" fill="#EEEEEE"/>
</svg>
