<svg width="120" height="121" viewBox="0 0 120 121" fill="none" xmlns="http://www.w3.org/2000/svg">
<rect y="0.5" width="120" height="120" rx="60" fill="#E1F0FE"/>
<g clip-path="url(#clip0_1051_261)">
<path d="M80.6802 94.8886L73.0471 92.7335C72.4685 92.5705 71.8539 92.8263 71.564 93.353L67.7419 100.303C67.5887 100.582 67.1829 100.559 67.059 100.267L63.6245 92.0603L55.3555 72.302L61.4797 57.6719L66.6842 59.8496L71.8948 72.3008L81.1336 94.3766C81.2557 94.6701 80.9847 94.9747 80.6802 94.8886Z" fill="#004DAE"/>
<path d="M52.1518 100.304L48.3292 93.3542C48.0399 92.8275 47.4253 92.5705 46.8473 92.7341L39.2136 94.8893C38.9084 94.9753 38.638 94.6701 38.7607 94.3772L54.8496 55.9336L68.923 61.8235L52.8342 100.267C52.7115 100.56 52.305 100.582 52.1518 100.304Z" fill="#004DAE"/>
<path d="M63.3793 21.7328L68.0754 25.6036C68.9055 26.2878 69.9211 26.7083 70.991 26.8115L77.0488 27.3944C79.6208 27.6422 81.6563 29.6777 81.9041 32.2497L82.4876 38.3075C82.5908 39.378 83.0113 40.3936 83.6955 41.2231L87.5663 45.9191C89.21 47.9132 89.21 50.7916 87.5663 52.7856L83.6955 57.4816C83.0113 58.3111 82.5908 59.3267 82.4876 60.3973L81.9041 66.455C81.6563 69.027 79.6208 71.0626 77.0488 71.3104L70.991 71.8939C69.9205 71.997 68.9055 72.4175 68.0754 73.1011L63.3793 76.9726C61.3859 78.6156 58.5069 78.6156 56.5129 76.9726L51.8175 73.1011C50.9874 72.4175 49.9718 71.997 48.9012 71.8939L42.8441 71.3104C40.2721 71.0626 38.2359 69.027 37.9887 66.455L37.4052 60.3973C37.3021 59.3267 36.8816 58.3111 36.1974 57.4816L32.3265 52.7856C30.6828 50.7922 30.6828 47.9132 32.3265 45.9191L36.1974 41.2237C36.8816 40.3936 37.3021 39.378 37.4052 38.3075L37.9881 32.2497C38.2359 29.6783 40.2714 27.6422 42.8435 27.395L48.9012 26.8115C49.9718 26.7083 50.9874 26.2878 51.8168 25.6036L56.5129 21.7328C58.5069 20.0891 61.3859 20.0891 63.3793 21.7328Z" fill="#004DAE"/>
<path d="M77.8204 49.3523C77.8204 59.2247 69.8175 67.2276 59.9451 67.2276C50.0732 67.2276 42.0703 59.2247 42.0703 49.3523C42.0703 39.4805 50.0732 31.4775 59.9451 31.4775C69.8175 31.4775 77.8204 39.4805 77.8204 49.3523Z" fill="#3381E3"/>
<path d="M59.9456 31.4775C58.3959 31.4775 56.8914 31.6747 55.457 32.0458C63.1566 34.0367 68.8439 41.0301 68.8439 49.3523C68.8439 57.6744 63.1572 64.6678 55.457 66.6588C56.8914 67.0299 58.3959 67.227 59.9456 67.227C69.818 67.227 77.8209 59.2241 77.8209 49.3523C77.8209 39.4799 69.818 31.4775 59.9456 31.4775Z" fill="#3381E3"/>
<path d="M55.7885 58.4355C55.1214 58.4355 54.4817 58.1706 54.0099 57.6988L48.6706 52.3588C47.6879 51.3768 47.6879 49.7838 48.6706 48.8011C49.6526 47.8184 51.2457 47.8184 52.2283 48.8011L55.7891 52.3619L65.6658 42.4846C66.6485 41.5025 68.2415 41.5025 69.2236 42.4846C70.2062 43.4673 70.2062 45.0603 69.2236 46.0429L57.5677 57.6988C57.0959 58.1706 56.4562 58.4355 55.7885 58.4355Z" fill="white"/>
</g>
<defs>
<clipPath id="clip0_1051_261">
<rect width="80" height="80" fill="white" transform="translate(20 20.5)"/>
</clipPath>
</defs>
</svg>
