<svg width="100" height="100" viewBox="0 0 100 100" fill="none" xmlns="http://www.w3.org/2000/svg">
<rect width="100" height="100" rx="50" fill="#DBF7E5"/>
<path d="M46.116 66.5655L43.5546 74.6756C43.4782 74.9183 43.2536 75.0833 42.9987 75.0833H32.4987C32.3132 75.0833 32.1382 74.9947 32.0279 74.8448C31.9177 74.6948 31.8862 74.5018 31.9428 74.3244L36.0809 61.2204C36.2215 61.5483 36.3499 61.9158 36.4764 62.2792C36.9052 63.5123 37.3911 64.9094 38.6208 65.6211C39.8335 66.3228 41.2761 66.0493 42.5472 65.8095C43.3504 65.6572 44.1805 65.5009 44.7131 65.6433C45.1197 65.7512 45.6161 66.1403 46.116 66.5655ZM63.9164 61.2198C63.7759 61.5477 63.6469 61.9158 63.5204 62.2798C63.0916 63.5123 62.6057 64.91 61.3766 65.6211C60.1639 66.3228 58.7213 66.0504 57.4502 65.8095C56.6458 65.6572 55.8157 65.5021 55.2843 65.6427C54.8777 65.7518 54.3813 66.1403 53.8814 66.5655L56.4422 74.6756C56.5192 74.9183 56.7438 75.0833 56.9987 75.0833H67.4987C67.6842 75.0833 67.8592 74.9947 67.9694 74.8448C68.0797 74.6948 68.1112 74.5018 68.0546 74.3244L63.9164 61.2198ZM62.2487 45.9167C62.2487 52.6711 56.7531 58.1667 49.9987 58.1667C43.2443 58.1667 37.7487 52.6711 37.7487 45.9167C37.7487 39.1623 43.2443 33.6667 49.9987 33.6667C56.7531 33.6667 62.2487 39.1623 62.2487 45.9167ZM57.5517 43.4958C57.4823 43.2887 57.3026 43.1377 57.0868 43.1044L52.5572 42.412L50.5266 38.0854C50.4304 37.8813 50.225 37.75 49.9987 37.75C49.7724 37.75 49.567 37.8813 49.4708 38.0854L47.4402 42.412L42.9106 43.1044C42.6948 43.1377 42.5151 43.2882 42.4457 43.4958C42.3763 43.7035 42.4288 43.9316 42.581 44.0885L45.8588 47.4479L44.7633 52.2027C44.7125 52.4238 44.7948 52.6542 44.9733 52.7942C45.1518 52.9336 45.3962 52.9569 45.5974 52.8531L49.9987 50.5973L54.3994 52.8519C54.4828 52.8957 54.5749 52.9167 54.6654 52.9167C54.7931 52.9167 54.9197 52.8753 55.0235 52.7936C55.2026 52.6542 55.2843 52.4232 55.2335 52.2021L54.138 47.4473L57.4158 44.0879C57.5692 43.9316 57.6211 43.7029 57.5517 43.4958ZM67.4701 50.6014C67.1907 51.6456 67.3978 52.7417 67.5984 53.8022C67.7635 54.6743 67.9508 55.6636 67.683 56.1262C67.4059 56.6045 66.444 56.9399 65.5947 57.2345C64.5855 57.5857 63.5408 57.9485 62.7871 58.7022C62.0311 59.4588 61.6683 60.5029 61.3171 61.5127C61.0214 62.362 60.6871 63.3233 60.2094 63.6004C60.151 63.6337 59.9766 63.7346 59.5234 63.7346C59.0421 63.7346 58.4541 63.6238 57.8854 63.5158C57.2332 63.3922 56.4953 63.2528 55.7859 63.2528C55.3846 63.2528 55.0247 63.2965 54.6875 63.3858C53.6743 63.6576 52.8494 64.3704 52.0514 65.0605C51.3275 65.687 50.5803 66.3333 49.9987 66.3333C49.4159 66.3333 48.6687 65.687 47.9454 65.0605C47.1474 64.3704 46.3219 63.657 45.3134 63.3881C44.975 63.2977 44.6128 63.2539 44.2079 63.2539C43.5009 63.2539 42.763 63.3933 42.112 63.517C41.5404 63.6249 40.9524 63.7358 40.4717 63.7358C40.0202 63.7358 39.8452 63.6343 39.788 63.6016C39.3091 63.3239 38.9737 62.362 38.6791 61.5127C38.3279 60.5035 37.9651 59.4588 37.2114 58.7051C36.4549 57.9491 35.4107 57.5863 34.4009 57.2351C33.5516 56.9393 32.5903 56.6051 32.3132 56.1273C32.046 55.6648 32.2327 54.6766 32.3978 53.8039C32.599 52.7376 32.8049 51.6444 32.5267 50.602C32.2566 49.5934 31.5432 48.768 30.8537 47.9706C30.2284 47.2455 29.582 46.4983 29.582 45.9167C29.582 45.3339 30.2284 44.5867 30.8549 43.8633C31.5449 43.0653 32.2584 42.2399 32.5273 41.2313C32.8067 40.1872 32.5996 39.0911 32.3989 38.0306C32.2339 37.1585 32.0466 36.1692 32.3144 35.7066C32.5914 35.2283 33.5534 34.8928 34.4027 34.5983C35.4119 34.2471 36.4566 33.8843 37.2103 33.1306C37.9663 32.374 38.3291 31.3298 38.6803 30.3201C38.976 29.4708 39.3103 28.5094 39.788 28.2323C39.8464 28.1991 40.0214 28.0976 40.4746 28.0976C40.957 28.0976 41.5439 28.209 42.1114 28.3169C42.7624 28.44 43.4986 28.5794 44.2114 28.5794C44.6116 28.5794 44.9686 28.5368 45.3046 28.4482C46.3231 28.1752 47.1479 27.4623 47.9454 26.7722C48.6699 26.1463 49.4171 25.5 49.9987 25.5C50.5814 25.5 51.3287 26.1463 52.052 26.7728C52.85 27.4629 53.6754 28.1763 54.684 28.4453C55.0218 28.5351 55.3829 28.5794 55.7877 28.5794C56.4918 28.5794 57.2314 28.44 57.8836 28.3169C58.4547 28.2084 59.0439 28.0976 59.5245 28.0976C59.976 28.0976 60.1516 28.1991 60.2088 28.2318C60.6877 28.5094 61.0231 29.4713 61.3177 30.3207C61.6689 31.3298 62.0317 32.3746 62.7854 33.1283C63.5419 33.8843 64.5861 34.2471 65.5959 34.5983C66.4452 34.894 67.4065 35.2283 67.6836 35.706C67.9508 36.1686 67.7641 37.1568 67.599 38.0294C67.3978 39.0958 67.1919 40.1889 67.4701 41.2313C67.7402 42.2399 68.4536 43.0653 69.1431 43.8628C69.769 44.5878 70.4154 45.3351 70.4154 45.9167C70.4154 46.4994 69.769 47.2467 69.1425 47.97C68.453 48.768 67.739 49.5934 67.4701 50.6014ZM64.582 45.9167C64.582 37.8754 58.0399 31.3333 49.9987 31.3333C41.9574 31.3333 35.4154 37.8754 35.4154 45.9167C35.4154 53.9579 41.9574 60.5 49.9987 60.5C58.0399 60.5 64.582 53.9579 64.582 45.9167Z" fill="#14A149"/>
</svg>
