<svg width="60" height="60" viewBox="0 0 60 60" fill="none" xmlns="http://www.w3.org/2000/svg">
<rect x="-0.5" y="0.5" width="59" height="59" rx="29.5" transform="matrix(-1 0 0 1 59 0)" fill="white"/>
<rect x="-0.5" y="0.5" width="59" height="59" rx="29.5" transform="matrix(-1 0 0 1 59 0)" stroke="black"/>
<path d="M45.3536 29.6464C45.5488 29.8417 45.5488 30.1583 45.3536 30.3536L42.1716 33.5355C41.9763 33.7308 41.6597 33.7308 41.4645 33.5355C41.2692 33.3403 41.2692 33.0237 41.4645 32.8284L44.2929 30L41.4645 27.1716C41.2692 26.9763 41.2692 26.6597 41.4645 26.4645C41.6597 26.2692 41.9763 26.2692 42.1716 26.4645L45.3536 29.6464ZM15 29.5L45 29.5L45 30.5L15 30.5L15 29.5Z" fill="black"/>
</svg>
