<svg width="40" height="40" viewBox="0 0 40 40" fill="none" xmlns="http://www.w3.org/2000/svg">
<rect width="40" height="40" rx="20" fill="black"/>
<g clip-path="url(#clip0_2737_782)">
<path d="M19.8458 19.5975C21.3017 19.5975 22.5624 19.0753 23.5925 18.0451C24.6225 17.015 25.1447 15.7547 25.1447 14.2986C25.1447 12.843 24.6225 11.5825 23.5923 10.5521C22.5621 9.52217 21.3015 9 19.8458 9C18.3897 9 17.1294 9.52217 16.0993 10.5522C15.0692 11.5823 14.5469 12.8428 14.5469 14.2986C14.5469 15.7547 15.0692 17.0152 16.0995 18.0453C17.1297 19.0752 18.3902 19.5975 19.8458 19.5975Z" fill="white"/>
<path d="M29.1149 25.917C29.0852 25.4883 29.0251 25.0207 28.9367 24.5269C28.8474 24.0294 28.7324 23.5591 28.5948 23.1292C28.4526 22.685 28.2592 22.2462 28.0202 21.8257C27.7721 21.3893 27.4808 21.0093 27.1538 20.6966C26.8119 20.3695 26.3933 20.1065 25.9092 19.9146C25.4268 19.7238 24.8922 19.6271 24.3204 19.6271C24.0958 19.6271 23.8786 19.7193 23.4592 19.9924C23.201 20.1607 22.899 20.3554 22.562 20.5708C22.2738 20.7544 21.8834 20.9264 21.4012 21.0822C20.9307 21.2344 20.453 21.3116 19.9815 21.3116C19.5101 21.3116 19.0325 21.2344 18.5616 21.0822C18.0798 20.9266 17.6894 20.7545 17.4016 20.5709C17.0677 20.3576 16.7656 20.1629 16.5036 19.9922C16.0846 19.7191 15.8673 19.627 15.6427 19.627C15.0707 19.627 14.5363 19.7238 14.054 19.9148C13.5703 20.1063 13.1515 20.3693 12.8093 20.6968C12.4825 21.0097 12.1909 21.3895 11.9432 21.8257C11.7043 22.2462 11.511 22.6848 11.3687 23.1294C11.2312 23.5593 11.1162 24.0294 11.0269 24.5269C10.9385 25.02 10.8784 25.4878 10.8487 25.9175C10.8195 26.3385 10.8047 26.7754 10.8047 27.2166C10.8047 28.3651 11.1698 29.2948 11.8896 29.9804C12.6006 30.657 13.5414 31.0002 14.6855 31.0002H25.2786C26.4227 31.0002 27.3631 30.6572 28.0743 29.9804C28.7943 29.2953 29.1594 28.3654 29.1594 27.2165C29.1592 26.7732 29.1443 26.336 29.1149 25.917Z" fill="white"/>
</g>
<defs>
<clipPath id="clip0_2737_782">
<rect width="22" height="22.0001" fill="white" transform="translate(9 9)"/>
</clipPath>
</defs>
</svg>
