<svg width="38" height="38" viewBox="0 0 38 38" fill="none" xmlns="http://www.w3.org/2000/svg">
<path d="M19.0002 18.9106C17.8289 18.9106 16.684 18.5632 15.7101 17.9125C14.7362 17.2618 13.9771 16.3369 13.5289 15.2548C13.0807 14.1727 12.9634 12.9819 13.1919 11.8331C13.4204 10.6844 13.9844 9.62916 14.8127 8.80095C15.6409 7.97273 16.6961 7.4087 17.8449 7.1802C18.9936 6.9517 20.1844 7.06897 21.2665 7.5172C22.3486 7.96543 23.2735 8.72448 23.9242 9.69836C24.575 10.6722 24.9223 11.8172 24.9223 12.9885C24.9205 14.5586 24.2961 16.0639 23.1858 17.1741C22.0756 18.2843 20.5703 18.9088 19.0002 18.9106ZM19.0002 8.71143C18.1543 8.71143 17.3274 8.96228 16.624 9.43224C15.9206 9.90221 15.3724 10.5702 15.0487 11.3517C14.725 12.1333 14.6403 12.9932 14.8053 13.8229C14.9704 14.6526 15.3777 15.4147 15.9759 16.0128C16.574 16.611 17.3361 17.0183 18.1658 17.1834C18.9955 17.3484 19.8554 17.2637 20.637 16.94C21.4185 16.6163 22.0865 16.0681 22.5564 15.3647C23.0264 14.6613 23.2773 13.8344 23.2773 12.9885C23.276 11.8545 22.8249 10.7674 22.0231 9.96559C21.2213 9.16377 20.1342 8.71274 19.0002 8.71143Z" fill="black"/>
<path d="M29.2798 30.9336C29.0617 30.9336 28.8525 30.8469 28.6982 30.6927C28.544 30.5384 28.4573 30.3292 28.4573 30.1111V28.0778C28.4556 26.516 27.8344 25.0187 26.73 23.9143C25.6256 22.81 24.1283 22.1888 22.5665 22.187H15.4304C13.8686 22.1888 12.3712 22.81 11.2669 23.9143C10.1625 25.0187 9.54129 26.516 9.53955 28.0778V30.1111C9.53955 30.3292 9.4529 30.5384 9.29864 30.6927C9.14439 30.8469 8.93519 30.9336 8.71704 30.9336C8.4989 30.9336 8.28969 30.8469 8.13544 30.6927C7.98119 30.5384 7.89453 30.3292 7.89453 30.1111V28.0778C7.89693 26.0799 8.69165 24.1646 10.1044 22.7518C11.5171 21.3391 13.4325 20.5444 15.4304 20.542H22.5657C24.5637 20.5442 26.4793 21.3388 27.8922 22.7515C29.3051 24.1643 30.0999 26.0798 30.1023 28.0778V30.1111C30.1023 30.3292 30.0157 30.5384 29.8614 30.6927C29.7072 30.8469 29.498 30.9336 29.2798 30.9336Z" fill="black"/>
</svg>
